<?xml version="1.0" encoding="UTF-8"?>
<!DOCTYPE svg PUBLIC "-//W3C//DTD SVG 1.1//EN" "http://www.w3.org/Graphics/SVG/1.1/DTD/svg11.dtd">
<!-- Creator: CorelDRAW -->
<svg xmlns="http://www.w3.org/2000/svg" xml:space="preserve" width="92.3085mm" height="14.9974mm" version="1.1" style="shape-rendering:geometricPrecision; text-rendering:geometricPrecision; image-rendering:optimizeQuality; fill-rule:evenodd; clip-rule:evenodd"
viewBox="0 0 22315.85 3625.66"
 xmlns:xlink="http://www.w3.org/1999/xlink"
 xmlns:xodm="http://www.corel.com/coreldraw/odm/2003">
 <defs>
  <style type="text/css">
   <![CDATA[
    .fil0 {fill:#F08800}
    .fil3 {fill:#F08800}
    .fil2 {fill:#FBFBFB}
    .fil1 {fill:#FCFCFC}
   ]]>
  </style>
 </defs>
 <g id="Слой_x0020_1">
  <metadata id="CorelCorpID_0Corel-Layer"/>
  <g id="_1795211613520">
   <path class="fil0" d="M-0 2222.12c540.17,33.43 1990.93,21.61 2646.95,5.49 148.05,-3.65 144.86,14.75 333.84,-186.61l466.92 -594.33 -1520.75 -5.63c101.58,-156.22 144.66,-193.74 263.34,-326.22 392.15,-437.84 179.5,-306.4 1532.01,-298.95 586.78,3.24 840.09,86.31 1039.22,-161.06 102.16,-126.92 498.88,-547.4 525.16,-645.89l-3285.42 -8.92c-215.23,2.3 -218.57,42.55 -313.92,156.75 -104.97,143.6 -708.96,937.13 -1046.06,1296.13 -102.38,109.03 -125.16,155.04 -217.36,253.62 -40.2,43.01 -404.55,464.72 -423.94,515.61z"/>
   <path class="fil0" d="M3466.57 2222.63l1538.54 10.3c-96.51,167.24 -185.26,205.66 -297.16,354.87 -191.15,254.83 -205.8,262.06 -379.21,261.89 -583.33,1.45 -1169.12,4.06 -1752.27,-0.05 -477.51,-3.34 -581.39,240.04 -618.81,282.05 -136.49,178.32 -245.26,335.43 -355.62,486.79l3478.1 7.18c224.4,-265.98 1781.74,-2025.77 1803.55,-2171.88l-2624.93 -3.72c-225.7,2.56 -222.8,86.64 -317.49,203.63 -126.9,156.83 -405.37,429.52 -474.68,568.94z"/>
   <path class="fil1" d="M8792.33 3604.34l552.24 7.66 0.94 -2466.6 927.48 -9.94 8.1 801.48 -688.54 18.66c-53.4,872.03 297.24,792.83 693.98,1641.99l623.43 7.49c-109.8,-370.9 -569.96,-786.83 -686.67,-1202.62 742.95,23.57 645.21,-51.2 636.25,-927.65 -9.82,-962.51 88.99,-820.65 -2064.38,-842.65l-2.83 2972.18z"/>
   <path class="fil1" d="M19458.45 633.83l3.99 2474.39 -935.49 10.01c-94.21,-377.28 -12.52,-1966.15 -24.8,-2474.39l-555.77 -8.97c16.39,510.2 4.09,1028.03 6.02,1535.57 6.48,1722.68 -234.62,1428.98 1290.09,1440.32 567.56,4.23 775.47,122.47 776.08,-482.06 0.8,-823.29 18.06,-1665.17 1.04,-2485.94l-561.16 -8.92z"/>
   <polygon class="fil1" points="14880.81,3611.69 16693.79,3607.22 16686.36,3108.87 15429.1,3108.17 15443.95,2353.85 16451.62,2352.42 16443.62,1873.08 15457.27,1852.55 15447.21,1136.89 16724.32,1134.26 16726.76,633.25 14877.59,625.85 "/>
   <path class="fil1" d="M20396.06 1131.62l1222.96 4.25c-54.78,159.51 -575.42,923.96 -711.02,1133.41 -505,780.09 -565.56,718.61 -545.64,1338.39l1933.9 1.93 6.19 -501.03 -1223.17 -2.8c13.51,-153.08 545.83,-938.51 671.76,-1121.83 500.72,-729.08 543.68,-732.27 564.81,-1352.49l-1928.17 -3.05 8.39 503.21z"/>
   <polygon class="fil1" points="5339.5,1125.65 7136.52,1138.92 7135.89,3609.56 7701.55,3604.8 7700.87,1132.47 8961.83,1136.84 8966.88,632.14 5334.88,633.2 "/>
   <path class="fil2" d="M14594.28 3606.35c-121.21,-285.61 -948.15,-1305.44 -932.78,-1471.09 15.79,-170.12 806.32,-1217.37 928.74,-1495.92l-667.79 -11.73 -759.81 1244.98c-260.61,375.06 -17.19,560.82 480.87,1288.62l316.5 424.25c132.43,69.55 467.77,29.59 634.26,20.89z"/>
   <polygon class="fil2" points="11327.86,1605.24 11328.49,3600.96 11893.18,3603.4 11904.1,636.85 11331.8,627.98 "/>
   <polygon class="fil1" points="12431.73,3610 12931.02,3610.22 12950.8,672.22 12418.53,658.1 "/>
   <path class="fil3" d="M17079.79 3598.2c173.94,24.32 368.17,38.25 529.85,-15.33l0.31 -468.81 -517.57 -15.69 -12.6 499.82z"/>
  </g>
 </g>
</svg>
