<?xml version="1.0" encoding="UTF-8"?>
<!DOCTYPE svg PUBLIC "-//W3C//DTD SVG 1.1//EN" "http://www.w3.org/Graphics/SVG/1.1/DTD/svg11.dtd">
<!-- Creator: CorelDRAW -->
<svg xmlns="http://www.w3.org/2000/svg" xml:space="preserve" width="65.512mm" height="33.1091mm" version="1.1" style="shape-rendering:geometricPrecision; text-rendering:geometricPrecision; image-rendering:optimizeQuality; fill-rule:evenodd; clip-rule:evenodd"
viewBox="0 0 6551.2 3310.91"
 xmlns:xlink="http://www.w3.org/1999/xlink"
 xmlns:xodm="http://www.corel.com/coreldraw/odm/2003">
 <defs>
  <style type="text/css">
   <![CDATA[
    .fil0 {fill:#F08800}
    .fil2 {fill:#F08800}
    .fil1 {fill:#FCFCFC}
   ]]>
  </style>
 </defs>
 <g id="Слой_x0020_1">
  <metadata id="CorelCorpID_0Corel-Layer"/>
  <g id="_1795212847808">
   <path class="fil0" d="M1676.76 1029.88c250.36,15.5 922.74,10.02 1226.78,2.55 68.63,-1.69 67.14,6.83 154.73,-86.49l216.41 -275.45 -704.83 -2.61c47.08,-72.41 67.05,-89.8 122.05,-151.2 181.76,-202.92 83.2,-142.01 710.05,-138.56 271.96,1.5 389.36,40.01 481.65,-74.64 47.35,-58.82 231.22,-253.7 243.4,-299.35l-1522.71 -4.13c-99.75,1.06 -101.3,19.71 -145.49,72.64 -48.64,66.56 -328.59,434.33 -484.82,600.72 -47.45,50.54 -58,71.87 -100.73,117.56 -18.64,19.93 -187.51,215.37 -196.49,238.96z"/>
   <path class="fil0" d="M3283.42 1030.12l713.07 4.78c-44.73,77.51 -85.86,95.31 -137.73,164.46 -88.59,118.12 -95.39,121.46 -175.75,121.38 -270.36,0.68 -541.86,1.88 -812.14,-0.01 -221.31,-1.56 -269.45,111.24 -286.8,130.72 -63.26,82.65 -113.67,155.46 -164.81,225.61l1611.99 3.33c104.01,-123.27 825.79,-938.89 835.9,-1006.61l-1216.58 -1.73c-104.61,1.19 -103.27,40.16 -147.15,94.38 -58.82,72.69 -187.88,199.07 -220,263.69z"/>
   <path class="fil1" d="M1694.36 3303.26l198.33 2.75 0.34 -885.86 333.1 -3.57 2.91 287.85 -247.29 6.7c-19.17,313.17 106.75,284.73 249.24,589.7l223.9 2.7c-39.44,-133.21 -204.7,-282.59 -246.61,-431.92 266.82,8.47 231.71,-18.39 228.5,-333.16 -4.05,-396.23 44.31,-295.99 -741.4,-304.02l-1.02 1068.83z"/>
   <path class="fil0" d="M4.2 2632.14l0.05 15.61c0.63,214.91 51.71,175.92 505.24,209.4l10.2 267.26 -318.19 -0.98 -1.06 -169.6 -191.36 0.77c-15.68,429.98 -70.41,349.67 488.59,349.63 234.81,-0.01 221.89,52.64 222.57,-469.09 0.29,-222.91 -166.6,-120.39 -511.03,-180.77l-4.93 -236.16 312.81 -0.78 4.25 152.57 199.06 -10.89c8.24,-377.86 29.22,-323.34 -425.71,-323.09 -333.77,0.18 -291.82,-52.64 -290.49,396.12z"/>
   <path class="fil1" d="M5524.99 2236.43l1.44 888.64 -335.98 3.6c-33.84,-135.5 -4.49,-706.13 -8.9,-888.65l-199.6 -3.22c5.88,183.23 1.47,369.2 2.16,551.48 2.33,618.68 -84.26,513.2 463.32,517.27 203.83,1.52 278.51,43.99 278.72,-173.12 0.29,-295.68 6.49,-598.03 0.38,-892.8l-201.54 -3.2z"/>
   <polygon class="fil1" points="3880.98,3305.89 4532.09,3304.29 4529.42,3125.31 4077.89,3125.06 4083.22,2854.15 4445.12,2853.64 4442.25,2681.49 4088.01,2674.11 4084.39,2417.09 4543.05,2416.15 4543.93,2236.22 3879.82,2233.56 "/>
   <path class="fil1" d="M5861.73 2415.2l439.21 1.53c-19.68,57.28 -206.66,331.83 -255.35,407.05 -181.38,280.16 -203.13,258.08 -195.97,480.67l694.54 0.7 2.23 -179.94 -439.29 -1.01c4.85,-54.98 196.02,-337.06 241.25,-402.9 179.83,-261.84 195.26,-262.98 202.85,-485.72l-692.49 -1.1 3.02 180.72z"/>
   <polygon class="fil1" points="828.6,2413.06 1099.69,2417.82 1099.47,3305.13 1302.61,3303.41 1302.37,2415.51 1576.59,2417.08 1578.4,2235.81 826.94,2236.2 "/>
   <path class="fil1" d="M3778.07 3303.97c-43.53,-102.57 -340.51,-468.83 -334.99,-528.33 5.66,-61.09 289.58,-437.2 333.54,-537.24l-239.83 -4.2 -272.87 447.11c-93.6,134.7 -6.17,201.42 172.69,462.8l113.68 152.37c47.55,24.97 167.99,10.62 227.78,7.49z"/>
   <polygon class="fil1" points="2604.97,2585.29 2605.2,3302.04 2808,3302.91 2811.92,2237.51 2606.39,2234.32 "/>
   <polygon class="fil1" points="3001.41,3305.28 3180.73,3305.37 3187.83,2250.21 2996.68,2245.14 "/>
   <path class="fil2" d="M4670.72 3301.05c62.47,8.73 132.22,13.74 190.29,-5.5l0.11 -168.37 -185.88 -5.64 -4.52 179.51z"/>
  </g>
 </g>
</svg>
